<svg width="16" height="12" viewBox="0 0 16 12" fill="none" xmlns="http://www.w3.org/2000/svg">
<path fill-rule="evenodd" clip-rule="evenodd" d="M8.46162 2.61137C8.20367 2.85892 7.79637 2.85892 7.53842 2.61137L7.07682 2.1684C6.53653 1.64992 5.80664 1.33333 5.00002 1.33333C3.34317 1.33333 2.00002 2.67648 2.00002 4.33333C2.00002 5.92175 2.85988 7.23337 4.10119 8.31104C5.34357 9.38963 6.82895 10.105 7.71645 10.47C7.90202 10.5464 8.09802 10.5464 8.28359 10.47C9.17109 10.105 10.6565 9.38963 11.8988 8.31104C13.1402 7.23336 14 5.92175 14 4.33333C14 2.67648 12.6569 1.33333 11 1.33333C10.1934 1.33333 9.46351 1.64991 8.92322 2.1684L8.46162 2.61137ZM8.00002 1.20638C7.22142 0.459203 6.16435 0 5.00002 0C2.60679 0 0.666687 1.9401 0.666687 4.33333C0.666687 8.57884 5.31358 10.9233 7.20921 11.7031C7.71973 11.9131 8.28031 11.9131 8.79083 11.7031C10.6865 10.9233 15.3334 8.57883 15.3334 4.33333C15.3334 1.9401 13.3933 0 11 0C9.83569 0 8.77862 0.459203 8.00002 1.20638Z" fill="#141718"/>
</svg>
